<svg xmlns="http://www.w3.org/2000/svg" viewBox="0 0 816.81 207.03"><defs><style>.cls-1,.cls-2,.cls-8{fill:#262626;}.cls-2{font-size:34.14px;font-family:Helvetica-Bold, Helvetica;font-weight:700;letter-spacing:0.3em;}.cls-3{letter-spacing:0.26em;}.cls-4{letter-spacing:0.3em;}.cls-5{letter-spacing:0.23em;}.cls-6{letter-spacing:0.28em;}.cls-7{letter-spacing:0.26em;}.cls-8{font-size:100.59px;font-family:NHaasGroteskTXPro-65Md, Neue Haas Grotesk Text Pro;font-weight:500;}.cls-9{letter-spacing:-0.01em;}</style></defs><g id="Capa_2" data-name="Capa 2"><g id="Layer_1" data-name="Layer 1"><path class="cls-1" d="M50.25,71l-5.52-2.93,2.94,5.51a1.86,1.86,0,0,0,.79.78A1.9,1.9,0,0,0,50.25,71Z"/><path class="cls-1" d="M119.07,145l5.51,2.94-2.94-5.51a1.9,1.9,0,1,0-2.57,2.57Z"/><path class="cls-1" d="M34.17,106.17l-6,1.82,6,1.82a1.9,1.9,0,1,0,0-3.64Z"/><path class="cls-1" d="M141.11,108l-6-1.82a1.83,1.83,0,0,0-1.11,0,1.9,1.9,0,1,0,1.11,3.64Z"/><path class="cls-1" d="M50.25,145a1.91,1.91,0,0,0,0-3.36,1.91,1.91,0,0,0-2.58.79l-2.94,5.51Z"/><path class="cls-1" d="M119.07,74.36a1.89,1.89,0,0,0,2.57-.78l2.94-5.51L119.07,71a1.88,1.88,0,0,0-.79.79A1.9,1.9,0,0,0,119.07,74.36Z"/><path class="cls-1" d="M153.68,184.6l-14-10A85.65,85.65,0,0,0,100.62,23.79c.21,2.24.37,4.06.51,5.52.28,3,.41,4.6.48,5.41a75,75,0,0,1,7.63,2.19L104.9,40c-.37.26-1.47,1-2.92,2.18-.36-.49-.73-.95-1.09-1.42a17.58,17.58,0,0,1-1.71,3.77,17.81,17.81,0,0,1-2,2.7,17.28,17.28,0,0,1-2.76,2.43,11.2,11.2,0,0,1,2.08,5.91,5.6,5.6,0,0,1-1.38,4.22,4.54,4.54,0,0,1-1.48.91l.11,3.78,0,1.3H93.5l-.94-2.15a5.15,5.15,0,0,0-2.94-2.78l-.37-13a13,13,0,0,0,8.43-12.18c0-.82-2.94-31.48-2.94-31.48a1.68,1.68,0,0,0-3.36.15V27a2.29,2.29,0,0,1-4.57,0V2.15a2.16,2.16,0,0,0-4.31,0V27a2.29,2.29,0,0,1-4.57,0V4.35a1.68,1.68,0,0,0-3.36-.15s-2.93,30.66-2.93,31.48a13,13,0,0,0,8.43,12.18l-.37,13a5.17,5.17,0,0,0-3,2.78l-.94,2.15h-.25l0-1.31.11-3.77a4.5,4.5,0,0,1-1.47-.91,5.6,5.6,0,0,1-1.39-4.22,11.22,11.22,0,0,1,2.09-5.91,16.86,16.86,0,0,1-2.76-2.43,16.16,16.16,0,0,1-2-2.7,16.58,16.58,0,0,1-1.71-3.76c-.37.46-.74.93-1.09,1.41C65.89,41,64.79,40.24,64.42,40l-4.34-3.07a74.81,74.81,0,0,1,7.62-2.19c.07-.77.19-2.22.44-5,.14-1.46.3-3.28.52-5.56A85.65,85.65,0,0,0,30.72,173.85L15.63,184.6a2.67,2.67,0,0,0,3.1,4.34l1.2-.86,20.51-14.62,10.2-7.27c8.13-5.8,11.52-15.24,8.64-24.06l-.42-1.28a35.78,35.78,0,0,1,1.27-25.8L62.77,109v0l7-16a2.43,2.43,0,0,0,.16-.37L74.44,82.2l7.14-16.4a3.43,3.43,0,0,1,1.74-.21v6.85a2.51,2.51,0,0,0-1,1.29c-15,42.41-15,42.7-15,43a1.33,1.33,0,0,0,2.63.27c.33-1.13,5.4-15.6,13.38-38.22V92.26L73.5,122.74a1.33,1.33,0,0,0,.86,1.67,1.22,1.22,0,0,0,.41.07,1.33,1.33,0,0,0,1.27-.93L83.32,101v56.56s0,0,0,0c0,.37-.07.8-.12,1.3a27.1,27.1,0,0,1-1.4,6,28.68,28.68,0,0,1-4.14,7.66c-.94,1.24-2.11,2.58-3.23,3.94L71,180.58,52.53,202.65l-.08.1a2.63,2.63,0,0,0-.34.61A2.66,2.66,0,0,0,56.7,206s5.43-6.83,11.1-14a85.49,85.49,0,0,0,34,.35c5.55,7,10.78,13.65,10.78,13.65l.09.11a2.66,2.66,0,0,0,4.42-2.9,2.28,2.28,0,0,0-.34-.53l-18.5-22c-1.16-1.37-2.32-2.75-3.45-4.11s-2.31-2.69-3.25-3.94a28.73,28.73,0,0,1-4.17-7.67,28.06,28.06,0,0,1-1.42-6c0-.28,0-.51-.07-.75,0-.08,0-.15,0-.22a1.51,1.51,0,0,0,.06-.37V101l7.28,22.6a1.34,1.34,0,0,0,1.27.93,1.14,1.14,0,0,0,.41-.07,1.32,1.32,0,0,0,.86-1.67L86,92.26V78.81C92.62,97.59,99,115.74,99.37,117a1.33,1.33,0,0,0,2.64-.27c0-.31,0-.63-15-43a2.51,2.51,0,0,0-1-1.29V65.59a4,4,0,0,1,1.69.14l7.25,16.62,14.25,32.7a35.83,35.83,0,0,1,1.28,25.8l-.43,1.29c-2.88,8.81.52,18.25,8.65,24.05l10.19,7.27,20.49,14.61h0l1.23.87a2.62,2.62,0,0,0,1.54.5,2.67,2.67,0,0,0,1.55-4.84ZM53,105.41a20.43,20.43,0,0,1-4.85-12.55,20.4,20.4,0,0,1,6.41-4,69.54,69.54,0,0,1,2.28,8.3c.08.44.17.88.25,1.33.22,1.26.41,2.55.53,3.86A24.45,24.45,0,0,0,53,105.41ZM51.61,141c1.53,1.54,2.91,3.83.74,6-2,2-6.54,2.57-9.44,2.69.11-2.89.71-7.45,2.69-9.43C47.78,138.12,50.07,139.5,51.61,141ZM17.1,75.09A75.09,75.09,0,0,1,25,62.3c.1,1.24.16,2.64.2,3.47a71.83,71.83,0,0,0,.66,7.91c-1.83.22-3.16.45-3.6.53Zm-.45,12.67c.26.37,1,1.46,2.17,2.91a71.57,71.57,0,0,0-6.11,5.17c-.57.52-1.54,1.4-2.45,2.19a74.33,74.33,0,0,1,3.39-14.52Zm-3.92,32.39a71.4,71.4,0,0,0,6.09,5.16c-1.12,1.43-1.91,2.54-2.17,2.91l-2.93,4.14A74.52,74.52,0,0,1,10.3,118C11.23,118.79,12.2,119.67,12.73,120.15Zm9.52,21.62c.46.08,1.8.3,3.61.53a74.44,74.44,0,0,0-.67,8c0,.73-.08,2-.17,3.11a74.71,74.71,0,0,1-7.74-12.48ZM19.8,112.4A49.21,49.21,0,0,0,14.54,108a50.42,50.42,0,0,0,5.26-4.41c3.79-3.47,8.09-7.4,12.41-7.4a5.6,5.6,0,0,1,4.22,1.38,5.71,5.71,0,0,1,1.32,2.86,7.4,7.4,0,0,0-3.56-.84c-5.68,0-11.81,6.43-12.5,7.17L20.55,108l1.14,1.23c.69.74,6.82,7.18,12.5,7.18a7.29,7.29,0,0,0,3.56-.85,5.75,5.75,0,0,1-1.32,2.87,5.6,5.6,0,0,1-4.22,1.38C27.89,119.8,23.59,115.87,19.8,112.4Zm14.39.36c-2.79,0-6.44-2.81-8.57-4.77,2.13-2,5.78-4.77,8.57-4.77,3.08,0,3.73,2.59,3.73,4.77S37.27,112.76,34.19,112.76Zm2-19.68c-2.65-1.1-6.64-5.69-9.19-9,4.11-.51,10.19-1,12.84.15h0A3.1,3.1,0,0,1,42,87a7,7,0,0,1-.57,3.11C40.64,92.11,39,94.26,36.21,93.08ZM41.92,59c5.13.23,10.95.49,14,3.54a5.58,5.58,0,0,1,2,4,5.67,5.67,0,0,1-1.09,3,7.38,7.38,0,0,0-1.92-3.11c-4-4-12.91-3.8-13.91-3.77l-1.69.06-.06,1.69c0,1-.25,9.9,3.77,13.91a7.13,7.13,0,0,0,3.13,1.9,5.68,5.68,0,0,1-3,1.11,5.65,5.65,0,0,1-4-2c-3-3.06-3.31-8.88-3.54-14a50,50,0,0,0-.6-6.84A50,50,0,0,0,41.92,59Zm9.69,15.93c-1.54,1.54-3.83,2.91-6,.74-2-2-2.57-6.54-2.69-9.44,2.9.12,7.46.72,9.44,2.69C54.52,71.11,53.14,73.4,51.61,74.94Zm-.74-29.35c-.12.72-.32,2-.52,3.6a71.31,71.31,0,0,0-8.07-.67c-.78,0-2.14-.1-3.35-.19a75,75,0,0,1,12.85-8ZM27,131.86c2.55-3.27,6.54-7.87,9.19-9h0a3.06,3.06,0,0,1,3.46.38A7.51,7.51,0,0,1,42,129a3.09,3.09,0,0,1-2.18,2.72C37.21,132.8,31.14,132.37,27,131.86ZM66.77,64.8a6.85,6.85,0,0,1-3.11.57,3.09,3.09,0,0,1-2.72-2.18c-1.1-2.65-.67-8.72-.16-12.84,3.27,2.55,7.87,6.54,9,9.19C70.93,62.38,68.78,64,66.77,64.8ZM39.37,167.68l-.07-.06h.16Zm14-12.53c-3.18,1.44-7.5,1.64-11.42,1.82a48.5,48.5,0,0,0-6.84.6,50.33,50.33,0,0,0,.6-6.84c.23-5.14.49-11,3.54-14a5.63,5.63,0,0,1,3.89-2h.07a5.54,5.54,0,0,1,3,1.08,7.42,7.42,0,0,0-3.1,1.92c-4,4-3.81,12.91-3.77,13.91l.06,1.69,1.69.06.85,0c2.55,0,9.57-.33,13-3.76A15.22,15.22,0,0,1,53.34,155.15Zm1.91-42.23a41.73,41.73,0,0,0-2.33,7c-.17.7-.33,1.41-.46,2.12a39.31,39.31,0,0,0-.54,3.9,21.06,21.06,0,0,1-3.77-2.78A20.48,20.48,0,0,1,53,110.56a23.46,23.46,0,0,0,2.47,1.86Zm7-16a72.38,72.38,0,0,0-2.86-10.51,3,3,0,0,1,1.51.17c1.56.59,2.92,2.42,3.7,5Zm9.46-21.71-.84,1.94L67.7,84.36l-.36.83a12.21,12.21,0,0,0-.91-1.09,10.23,10.23,0,0,0-2.15-1.77,20.46,20.46,0,0,1,5.25-10.85,21.36,21.36,0,0,1,3.59.45Zm16.13,99a36.54,36.54,0,0,0-3.16,3.89,39.41,39.41,0,0,0-3.11-3.83,34.18,34.18,0,0,0,2-3.18l1.09,1L85.81,171A34,34,0,0,0,87.82,174.21ZM117.71,141c1.54-1.54,3.83-2.92,6-.74,2,2,2.57,6.54,2.69,9.43-2.89-.11-7.45-.71-9.43-2.69C114.79,144.87,116.17,142.58,117.71,141Zm-6-38.74c.13-1.31.31-2.62.54-3.88.08-.44.16-.87.25-1.3a68.13,68.13,0,0,1,2.27-8.31,20.26,20.26,0,0,1,6.41,4.06,20.44,20.44,0,0,1-4.84,12.54A24.21,24.21,0,0,0,111.69,102.3ZM117,68.93c2-2,6.54-2.57,9.43-2.69-.11,2.9-.71,7.45-2.69,9.44-2.17,2.16-4.46.8-6-.74S114.79,71.11,117,68.93Zm6.19,11.22a7.25,7.25,0,0,0,3.13-1.9c4-4,3.8-12.91,3.76-13.91L130,62.65l-1.69-.06c-1,0-9.89-.25-13.91,3.77a7.26,7.26,0,0,0-1.91,3.11,5.59,5.59,0,0,1-1.09-3,5.56,5.56,0,0,1,2-4c3-3,8.87-3.31,14-3.54a48.49,48.49,0,0,0,6.83-.6,50.14,50.14,0,0,0-.59,6.84c-.23,5.13-.49,11-3.55,14a5.75,5.75,0,0,1-4,2A5.62,5.62,0,0,1,123.16,80.15Zm4.68,9.95a7,7,0,0,1-.56-3.11,3.09,3.09,0,0,1,2.17-2.72,15.4,15.4,0,0,1,5.29-.68,63.74,63.74,0,0,1,7.55.53c-2.55,3.27-6.54,7.86-9.19,9C130.26,94.26,128.67,92.11,127.84,90.1Zm24.82,38.11c-.34-.48-1.12-1.56-2.17-2.9a73.73,73.73,0,0,0,6.11-5.17c.56-.51,1.51-1.38,2.41-2.15a74.52,74.52,0,0,1-3.42,14.37Zm3.93-32.39a70,70,0,0,0-6.1-5.15c1.12-1.44,1.91-2.54,2.18-2.92l3-4.24A75.14,75.14,0,0,1,159.06,98C158.11,97.21,157.12,96.31,156.59,95.82ZM135.12,116.4c5.68,0,11.82-6.44,12.5-7.18l1.15-1.23-1.15-1.24c-.68-.74-6.82-7.17-12.5-7.17a7.33,7.33,0,0,0-3.55.84,4.77,4.77,0,0,1,5.53-4.25c4.32,0,8.62,3.93,12.41,7.4a49.38,49.38,0,0,0,5.26,4.42,49.21,49.21,0,0,0-5.26,4.41c-3.79,3.47-8.09,7.4-12.41,7.4a4.76,4.76,0,0,1-5.53-4.25A7.22,7.22,0,0,0,135.12,116.4ZM131.4,108c0-2.18.64-4.77,3.72-4.77,2.8,0,6.44,2.8,8.57,4.77-2.13,2-5.77,4.77-8.57,4.77C132,112.76,131.4,110.16,131.4,108Zm15.65,33.78,5-.86a75.43,75.43,0,0,1-7.75,12.48c-.08-1.17-.14-2.41-.17-3.18a71.63,71.63,0,0,0-.66-7.91C145.28,142.07,146.61,141.85,147.05,141.77ZM144.12,65.7c0-.8.1-2.17.2-3.4a75.43,75.43,0,0,1,7.89,12.79l-5.15-.88c-.45-.08-1.79-.31-3.6-.53A72.24,72.24,0,0,0,144.12,65.7ZM126.91,48.53a72.35,72.35,0,0,0-7.94.66c-.22-1.72-.43-3-.53-3.6l-.9-5.24a75.3,75.3,0,0,1,12.84,8C129.14,48.43,127.73,48.49,126.91,48.53Zm-18.38,1.82c.51,4.12.94,10.19-.16,12.84a3.09,3.09,0,0,1-2.72,2.18,6.83,6.83,0,0,1-3.1-.57c-2-.83-4.16-2.42-3-5.26C100.66,56.89,105.26,52.9,108.53,50.35Zm19.31,75.53a7,7,0,0,1,1.8-2.6,3.08,3.08,0,0,1,3.46-.38c2.65,1.09,6.64,5.69,9.19,9-4.12.51-10.19.94-12.84-.16a3.08,3.08,0,0,1-2.17-2.72A7,7,0,0,1,127.84,125.88Zm-25-41.78a10.64,10.64,0,0,0-.9,1.09l-.36-.83L98.54,77.3l-.88-2-1.47-3.35a21.36,21.36,0,0,1,3.59-.45A20.48,20.48,0,0,1,105,82.33,10.28,10.28,0,0,0,102.88,84.1Zm4.2,12.8-2.35-5.39c.79-2.53,2.14-4.36,3.71-5a3,3,0,0,1,1.51-.17A70.93,70.93,0,0,0,107.08,96.9Zm6.77,15.52a25.73,25.73,0,0,0,2.47-1.86,20.51,20.51,0,0,1,4.84,12.55,20.71,20.71,0,0,1-3.77,2.78c-.11-1.26-.28-2.52-.51-3.77-.13-.69-.27-1.38-.43-2.06a42.73,42.73,0,0,0-2.38-7.14Zm.57,37.22c3.46,3.43,10.49,3.76,13,3.76l.85,0,1.69-.06.06-1.69c0-1,.25-9.89-3.76-13.91a7.37,7.37,0,0,0-3.11-1.91,5.55,5.55,0,0,1,2.95-1.09h.07a5.63,5.63,0,0,1,3.89,2c3.06,3.05,3.31,8.87,3.54,14a52,52,0,0,0,.6,6.84,48.5,48.5,0,0,0-6.84-.6c-3.92-.18-8.24-.38-11.42-1.82A15.42,15.42,0,0,1,114.42,149.64Zm15.43,18H130l-.08.06Z"/><text class="cls-2" transform="translate(224.52 171.74)">COMID<tspan class="cls-3" x="164.98" y="0">A</tspan><tspan class="cls-4" x="198.63" y="0"> </tspan><tspan class="cls-5" x="218.35" y="0">P</tspan><tspan class="cls-4" x="248.85" y="0">AR</tspan><tspan class="cls-3" x="318.63" y="0">A</tspan><tspan class="cls-4" x="352.28" y="0" xml:space="preserve"> E</tspan><tspan class="cls-6" x="405.01" y="0">L</tspan><tspan class="cls-3" x="435.51" y="0"> </tspan><tspan class="cls-4" x="453.98" y="0">ALM</tspan><tspan class="cls-7" x="558.65" y="0">A</tspan></text><text class="cls-8" transform="translate(218.26 127.39)">V<tspan class="cls-9" x="68.2" y="0">E</tspan><tspan x="134.39" y="0">GGIEZEN</tspan></text></g></g></svg>